<svg width="46" height="40" viewBox="0 0 46 40" fill="none" xmlns="http://www.w3.org/2000/svg">
<path d="M33.4 39.2C30.5 37.6 28.35 35.7 26.95 33.5C25.55 31.2 24.85 28.4 24.85 25.1C24.85 17.5 29.45 9.29999 38.65 0.499995L45.55 5L45.85 6.5C41.85 10.9 39.85 15.15 39.85 19.25C39.85 21.65 40.3 23.7 41.2 25.4C42.1 27.1 43.65 28.6 45.85 29.9V31.55C41.65 34.75 37.5 37.3 33.4 39.2ZM8.65 39.2C5.75 37.6 3.6 35.7 2.2 33.5C0.8 31.2 0.1 28.4 0.1 25.1C0.1 17.5 4.7 9.29999 13.9 0.499995L20.8 5L21.1 6.5C17.1 10.9 15.1 15.15 15.1 19.25C15.1 21.65 15.55 23.7 16.45 25.4C17.35 27.1 18.9 28.6 21.1 29.9V31.55C16.9 34.75 12.75 37.3 8.65 39.2Z" fill="#03C988"/>
</svg>
