<svg width="46" height="40" viewBox="0 0 46 40" fill="none" xmlns="http://www.w3.org/2000/svg">
<path d="M12.6101 0.807716C15.5113 2.40559 17.6627 4.30401 19.0643 6.50298C20.466 8.80195 21.168 11.6014 21.1704 14.9014C21.176 22.5014 16.582 30.7048 7.38851 39.5116L0.485211 35.0166L0.184109 33.5168C4.18088 29.1139 6.17775 24.8624 6.17474 20.7624C6.17298 18.3625 5.72148 16.3128 4.82023 14.6134C3.91898 12.9141 2.36788 11.4152 0.166925 10.1169L0.165714 8.46686C4.36336 5.26377 8.51149 2.71073 12.6101 0.807716ZM37.3601 0.789542C40.2613 2.38741 42.4127 4.28583 43.8143 6.4848C45.216 8.78377 45.918 11.5833 45.9204 14.8833C45.926 22.4833 41.332 30.6866 32.1385 39.4934L25.2352 34.9985L24.9341 33.4987C28.9309 29.0957 30.9277 24.8443 30.9247 20.7443C30.923 18.3443 30.4715 16.2946 29.5702 14.5953C28.669 12.8959 27.1179 11.3971 24.9169 10.0987L24.9157 8.44868C29.1134 5.2456 33.2615 2.69255 37.3601 0.789542Z" fill="#03C988"/>
</svg>
